<svg width="48" height="48" viewBox="0 0 48 48" fill="none" xmlns="http://www.w3.org/2000/svg">
    <path opacity="0.2" d="M42.0039 17.9999L27.2767 28.4999H20.7311L6.00391 17.9999L24.0039 5.99994L42.0039 17.9999Z"
          fill="#31B76F"/>
    <path d="M6.00391 17.9999V37.4999C6.00391 37.8978 6.16194 38.2793 6.44325 38.5606C6.72455 38.8419 7.10608 38.9999 7.50391 38.9999H40.5039C40.9017 38.9999 41.2833 38.8419 41.5646 38.5606C41.8459 38.2793 42.0039 37.8978 42.0039 37.4999V17.9999L24.0039 5.99994L6.00391 17.9999Z"
          stroke="#31B76F" stroke-width="3" stroke-linecap="round" stroke-linejoin="round"/>
    <path d="M20.7296 28.5001L6.46484 38.5761" stroke="#31B76F" stroke-width="3" stroke-linecap="round"
          stroke-linejoin="round"/>
    <path d="M41.5384 38.5761L27.2734 28.4999" stroke="#31B76F" stroke-width="3" stroke-linecap="round"
          stroke-linejoin="round"/>
    <path d="M42.0039 18L27.2767 28.5H20.7311L6.00391 18" stroke="#31B76F" stroke-width="3" stroke-linecap="round"
          stroke-linejoin="round"/>
</svg>
