<svg width="48" height="49" viewBox="0 0 48 49" fill="none" xmlns="http://www.w3.org/2000/svg">
    <path opacity="0.2"
          d="M24 5C20.0218 5.00001 16.2065 6.58037 13.3934 9.39341C10.5804 12.2065 9.00001 16.0218 9 20C9 33.5 24 44 24 44C24 44 39 33.5 39 20C39 16.0218 37.4196 12.2065 34.6066 9.39341C31.7935 6.58037 27.9782 5.00001 24 5ZM24 26C22.8133 26 21.6533 25.6481 20.6666 24.9888C19.6799 24.3295 18.9108 23.3925 18.4567 22.2961C18.0026 21.1997 17.8838 19.9933 18.1153 18.8295C18.3468 17.6656 18.9182 16.5965 19.7574 15.7574C20.5965 14.9182 21.6656 14.3468 22.8295 14.1153C23.9933 13.8838 25.1997 14.0026 26.2961 14.4567C27.3925 14.9108 28.3295 15.6799 28.9888 16.6666C29.6481 17.6533 30 18.8133 30 20C30 21.5913 29.3678 23.1174 28.2426 24.2426C27.1174 25.3678 25.5913 26 24 26Z"
          fill="#31B76F"/>
    <path d="M10.5 44H37.5" stroke="#31B76F" stroke-width="2" stroke-linecap="round" stroke-linejoin="round"/>
    <path d="M24 26C27.3137 26 30 23.3137 30 20C30 16.6863 27.3137 14 24 14C20.6863 14 18 16.6863 18 20C18 23.3137 20.6863 26 24 26Z"
          stroke="#31B76F" stroke-width="2" stroke-linecap="round" stroke-linejoin="round"/>
    <path d="M39 20C39 33.5 24 44 24 44C24 44 9 33.5 9 20C9 16.0218 10.5804 12.2064 13.3934 9.3934C16.2064 6.58035 20.0218 5 24 5C27.9782 5 31.7936 6.58035 34.6066 9.3934C37.4196 12.2064 39 16.0218 39 20V20Z"
          stroke="#31B76F" stroke-width="2" stroke-linecap="round" stroke-linejoin="round"/>
</svg>
