<svg width="48" height="48" viewBox="0 0 48 48" fill="none" xmlns="http://www.w3.org/2000/svg">
    <path opacity="0.2"
          d="M17.3393 23.4029C18.8952 26.5839 21.4737 29.1507 24.6618 30.6921C24.8951 30.8026 25.1531 30.8505 25.4105 30.831C25.6678 30.8116 25.9157 30.7254 26.1297 30.581L30.8239 27.4509C31.0315 27.3124 31.2704 27.228 31.5188 27.2051C31.7673 27.1823 32.0176 27.2218 32.2469 27.3201L41.0289 31.0838C41.3272 31.2105 41.5763 31.4308 41.7385 31.7114C41.9008 31.9919 41.9675 32.3177 41.9286 32.6394C41.651 34.8114 40.5912 36.8078 38.9477 38.2547C37.3042 39.7016 35.1897 40.4999 33 40.5C26.237 40.5 19.751 37.8134 14.9688 33.0312C10.1866 28.249 7.5 21.763 7.5 15C7.50012 12.8103 8.29836 10.6958 9.74528 9.05227C11.1922 7.40876 13.1886 6.34901 15.3606 6.07144C15.6823 6.0325 16.0081 6.09919 16.2886 6.26145C16.5692 6.42372 16.7895 6.67278 16.9162 6.97111L20.6832 15.7607C20.7806 15.9881 20.8203 16.236 20.7987 16.4824C20.7772 16.7288 20.695 16.966 20.5595 17.173L17.4402 21.9392C17.2982 22.1536 17.2143 22.4012 17.1966 22.6577C17.1789 22.9143 17.2281 23.171 17.3393 23.4029V23.4029Z"
          fill="#31B76F"/>
    <path d="M17.3393 23.4029C18.8952 26.5839 21.4737 29.1507 24.6618 30.6921C24.8951 30.8026 25.1531 30.8505 25.4105 30.831C25.6678 30.8116 25.9157 30.7254 26.1297 30.581L30.8239 27.4509C31.0315 27.3124 31.2704 27.228 31.5188 27.2051C31.7673 27.1823 32.0176 27.2218 32.2469 27.3201L41.0289 31.0838C41.3272 31.2105 41.5763 31.4308 41.7385 31.7114C41.9008 31.9919 41.9675 32.3177 41.9286 32.6394C41.651 34.8114 40.5912 36.8078 38.9477 38.2547C37.3042 39.7016 35.1897 40.4999 33 40.5C26.237 40.5 19.751 37.8134 14.9688 33.0312C10.1866 28.249 7.5 21.763 7.5 15C7.50012 12.8103 8.29836 10.6958 9.74528 9.05227C11.1922 7.40876 13.1886 6.34901 15.3606 6.07144C15.6823 6.0325 16.0081 6.09919 16.2886 6.26145C16.5692 6.42372 16.7895 6.67278 16.9162 6.97111L20.6832 15.7607C20.7806 15.9881 20.8203 16.236 20.7987 16.4824C20.7772 16.7288 20.695 16.966 20.5595 17.173L17.4402 21.9392C17.2982 22.1536 17.2143 22.4012 17.1966 22.6577C17.1789 22.9143 17.2281 23.171 17.3393 23.4029V23.4029Z"
          stroke="#31B76F" stroke-width="3" stroke-linecap="round" stroke-linejoin="round"/>
    <path d="M29.8906 7.5C32.4335 8.18388 34.752 9.52391 36.614 11.3859C38.4759 13.2478 39.816 15.5664 40.4999 18.1092"
          stroke="#31B76F" stroke-width="3" stroke-linecap="round" stroke-linejoin="round"/>
    <path d="M28.3398 13.297C29.8656 13.7073 31.2567 14.5113 32.3739 15.6285C33.491 16.7457 34.2951 18.1368 34.7054 19.6625"
          stroke="#31B76F" stroke-width="3" stroke-linecap="round" stroke-linejoin="round"/>
</svg>
