<svg width="34" height="16" viewBox="0 0 34 16" fill="none" xmlns="http://www.w3.org/2000/svg">
    <path fill-rule="evenodd" clip-rule="evenodd"
          d="M9.57556 2.16992C12.5583 2.03469 15.5651 1.98948 18.596 2.03433C19.8835 2.709 21.1325 3.45476 22.3429 4.27161C24.0082 4.31681 25.6735 4.36201 27.3388 4.40721C28.1468 4.57602 28.8869 4.89241 29.5592 5.35636C30.5364 6.19384 31.5078 7.03 32.4735 7.86483C31.6653 8.63175 30.8326 9.37751 29.9756 10.1021C29.2244 10.7628 28.3454 11.1696 27.3388 11.3225C25.6735 11.3677 24.0082 11.4129 22.3429 11.4581C21.2099 12.2151 20.0535 12.9382 18.8735 13.6275C15.7742 13.718 12.6749 13.718 9.57556 13.6275C11.5483 12.3093 13.5374 11.0211 15.5429 9.76314C15.6183 9.755 15.6645 9.70981 15.6817 9.62755C14.9939 9.49275 14.3 9.44755 13.6001 9.49195C13.6001 8.40721 13.6001 7.32246 13.6001 6.23772C14.2955 6.26021 14.9893 6.23762 15.6817 6.16992C13.6662 4.80159 11.6309 3.46826 9.57556 2.16992Z"
          fill="#FAFAFA"/>
    <path fill-rule="evenodd" clip-rule="evenodd"
          d="M0 6.37306C0 6.28266 0 6.19228 0 6.10188C0.639325 5.6367 1.26381 5.13952 1.87347 4.61035C2.03538 4.76855 2.19727 4.92673 2.35918 5.08493C1.75783 5.58211 1.15646 6.07927 0.555102 6.57645C0.337827 6.61709 0.152793 6.54929 0 6.37306Z"
          fill="#E8E7E8"/>
    <path fill-rule="evenodd" clip-rule="evenodd"
          d="M9.5754 6.10156C10.618 6.6628 11.6357 7.29556 12.6285 7.99987C12.7098 7.97149 12.7792 7.92629 12.8366 7.86427C13.1874 8.21653 13.3956 8.62331 13.4611 9.08461C13.4611 9.22021 13.4611 9.3558 13.4611 9.49139C13.3223 9.40099 13.1836 9.31061 13.0448 9.22021C12.9985 9.22021 12.9523 9.22021 12.906 9.22021C11.956 8.14067 10.8458 7.21412 9.5754 6.44055C8.66611 6.36635 8.66611 6.25336 9.5754 6.10156Z"
          fill="#E85858"/>
    <path fill-rule="evenodd" clip-rule="evenodd"
          d="M13.4612 6.2372C13.4612 6.86997 13.4612 7.50273 13.4612 8.1355C12.452 7.49431 11.5268 6.74854 10.6857 5.89821C10.8574 5.86674 10.9962 5.79894 11.102 5.69482C12.0792 5.30666 12.7499 5.57785 13.1142 6.50838C13.2125 6.38899 13.3282 6.29859 13.4612 6.2372Z"
          fill="#EA6434"/>
    <path fill-rule="evenodd" clip-rule="evenodd"
          d="M25.396 6.2373C27.1379 6.24201 27.8086 7.05557 27.4082 8.67798C26.3291 9.79895 25.3113 9.75375 24.3552 8.54239C24.0304 7.46101 24.3774 6.69265 25.396 6.2373Z"
          fill="#1B653D"/>
    <path fill-rule="evenodd" clip-rule="evenodd"
          d="M8.60396 6.2373C8.59205 6.37234 8.63832 6.48533 8.74274 6.57629C10.1006 7.47434 11.3959 8.44609 12.6284 9.49154C12.7968 9.45802 12.8893 9.36764 12.906 9.22036C12.9523 9.22036 12.9985 9.22036 13.0448 9.22036C13.0177 9.92497 12.6476 10.2414 11.9346 10.1695C10.4246 8.97622 8.89805 7.77847 7.35498 6.57629C7.52672 6.54482 7.66549 6.47702 7.77131 6.3729C8.03987 6.28483 8.31742 6.23964 8.60396 6.2373Z"
          fill="#DB537A"/>
    <path fill-rule="evenodd" clip-rule="evenodd"
          d="M11.1021 5.69531C10.9963 5.79943 10.8575 5.86723 10.6858 5.8987C11.5269 6.74903 12.4521 7.4948 13.4613 8.13599C13.4613 8.45237 13.4613 8.76876 13.4613 9.08514C13.3957 8.62384 13.1876 8.21706 12.8368 7.8648C12.7793 7.92682 12.7099 7.97202 12.6286 8.0004C11.6358 7.29609 10.6182 6.66333 9.57556 6.10209C9.66808 6.10209 9.71434 6.0569 9.71434 5.9665C10.1623 5.82472 10.6249 5.73434 11.1021 5.69531Z"
          fill="#E85B47"/>
    <path fill-rule="evenodd" clip-rule="evenodd"
          d="M15.2654 7.59375C17.3008 7.59375 19.3361 7.59375 21.3715 7.59375C21.3715 7.77454 21.3715 7.95534 21.3715 8.13612C19.3361 8.13612 17.3008 8.13612 15.2654 8.13612C15.2654 7.95534 15.2654 7.77454 15.2654 7.59375Z"
          fill="#1B653D"/>
    <path fill-rule="evenodd" clip-rule="evenodd"
          d="M2.9144 7.32227C2.85646 7.42011 2.76394 7.48791 2.63685 7.52566C3.08612 7.80953 3.40994 8.10332 3.60827 8.40701C2.66574 8.27317 1.74058 8.06978 0.832764 7.79684C1.52277 7.61237 2.21665 7.45417 2.9144 7.32227Z"
          fill="#5C3B81"/>
    <path fill-rule="evenodd" clip-rule="evenodd"
          d="M4.857 6.91504C4.84164 6.99875 4.79539 7.06655 4.71823 7.11843C5.39733 7.7916 6.0912 8.44696 6.79986 9.08453C5.71299 8.94452 4.64904 8.71852 3.60803 8.40656C3.40969 8.10288 3.08587 7.80909 2.6366 7.52521C2.76369 7.48746 2.85621 7.41966 2.91415 7.32182C3.55249 7.15748 4.2001 7.02189 4.857 6.91504Z"
          fill="#814690"/>
    <path fill-rule="evenodd" clip-rule="evenodd"
          d="M9.71433 5.96582C9.71433 6.05622 9.66807 6.10141 9.57555 6.10141C8.66627 6.25321 8.66627 6.3662 9.57555 6.4404C10.8459 7.21397 11.9561 8.14052 12.9062 9.22006C12.8895 9.36734 12.797 9.45773 12.6286 9.49124C11.396 8.44579 10.1008 7.47404 8.7429 6.57599C8.63848 6.48503 8.59222 6.37204 8.60412 6.23701C8.95002 6.06432 9.32009 5.97392 9.71433 5.96582Z"
          fill="#E65568"/>
    <path fill-rule="evenodd" clip-rule="evenodd"
          d="M5.96724 6.77964C6.56833 7.27364 7.21594 7.72562 7.9101 8.13557C8.09181 8.65179 8.46187 8.94556 9.0203 9.01692C9.14329 9.23587 9.28206 9.43926 9.43663 9.62709C8.51849 9.5461 7.63957 9.36532 6.79989 9.08472C6.09124 8.44715 5.39736 7.79179 4.71826 7.11862C4.79542 7.06674 4.84167 6.99894 4.85704 6.91523C5.21731 6.81146 5.58738 6.76625 5.96724 6.77964Z"
          fill="#AA4D8E"/>
    <path fill-rule="evenodd" clip-rule="evenodd"
          d="M7.77124 6.37305C7.66543 6.47717 7.52665 6.54497 7.35492 6.57644C8.89799 7.77862 10.4245 8.97637 11.9345 10.1697C11.4622 10.122 10.9996 10.0316 10.5468 9.89847C10.575 9.64214 10.4825 9.43876 10.2692 9.2883C9.13063 8.43943 7.97418 7.62587 6.79982 6.84762C6.52605 6.78044 6.2485 6.75785 5.96716 6.77983C6.52814 6.54434 7.12951 6.40875 7.77124 6.37305Z"
          fill="#CB5283"/>
    <path fill-rule="evenodd" clip-rule="evenodd"
          d="M5.96716 6.77961C6.2485 6.75763 6.52605 6.78022 6.79982 6.84741C7.97418 7.62566 9.13063 8.43922 10.2692 9.28809C10.4825 9.43854 10.575 9.64193 10.5468 9.89826C10.1525 9.89016 9.78245 9.79976 9.43655 9.62707C9.28198 9.43923 9.14321 9.23584 9.02022 9.0169C8.46179 8.94554 8.09173 8.65176 7.91002 8.13555C7.21587 7.72559 6.56826 7.27362 5.96716 6.77961Z"
          fill="#BE5087"/>
    <path fill-rule="evenodd" clip-rule="evenodd"
          d="M13.4613 6.2373C13.5076 6.2373 13.5538 6.2373 13.6001 6.2373C13.6001 7.32205 13.6001 8.4068 13.6001 9.49154C14.3001 9.44714 14.9939 9.49234 15.6817 9.62714C15.6645 9.7094 15.6183 9.75459 15.5429 9.76273C14.8491 9.67233 14.1552 9.58194 13.4613 9.49154C13.4613 9.35595 13.4613 9.22036 13.4613 9.08476C13.4613 8.76838 13.4613 8.45199 13.4613 8.13561C13.4613 7.50284 13.4613 6.87008 13.4613 6.2373Z"
          fill="#CCB7B1"/>
    <path fill-rule="evenodd" clip-rule="evenodd"
          d="M7.07752 10.3047C7.87206 10.7855 8.61221 11.3505 9.29793 11.9996C9.13602 12.1578 8.97412 12.316 8.81221 12.4742C8.19044 11.8997 7.54282 11.3573 6.86936 10.8471C6.82777 10.6348 6.89715 10.454 7.07752 10.3047Z"
          fill="#EBEBEB"/>
</svg>
