<svg width="20" height="18" viewBox="0 0 20 18" fill="none" xmlns="http://www.w3.org/2000/svg">
    <path d="M9.08959 1.55198C9.47342 0.816006 10.5266 0.816007 10.9104 1.55198L12.9277 5.42007C13.0815 5.71501 13.3687 5.91716 13.6983 5.96248L18.1119 6.5694C18.9717 6.68762 19.3061 7.75293 18.6683 8.34133L15.5487 11.2189C15.2904 11.4572 15.1719 11.811 15.2345 12.1568L15.9808 16.2742C16.1315 17.1055 15.2696 17.7529 14.5131 17.3766L10.4574 15.3588C10.1693 15.2155 9.83071 15.2155 9.54264 15.3588L5.48688 17.3766C4.73042 17.7529 3.86852 17.1055 4.0192 16.2742L4.76546 12.1568C4.82813 11.811 4.70961 11.4572 4.45132 11.2189L1.33174 8.34133C0.693858 7.75293 1.02832 6.68762 1.88805 6.5694L6.30174 5.96248C6.63129 5.91716 6.91846 5.71501 7.07228 5.42007L9.08959 1.55198Z"
          stroke="#E6E6E6" stroke-linecap="round" stroke-linejoin="round"/>
</svg>
