<svg width="20" height="20" viewBox="0 0 20 20" fill="none" xmlns="http://www.w3.org/2000/svg">
    <path d="M0.373009 18.6464C0.177747 18.8417 0.177747 19.1583 0.373009 19.3536C0.568271 19.5488 0.884854 19.5488 1.08012 19.3536L0.373009 18.6464ZM1.50159 10C1.50159 5.30558 5.30717 1.5 10.0016 1.5V0.5C4.75489 0.5 0.501594 4.75329 0.501594 10H1.50159ZM10.0016 1.5C14.696 1.5 18.5016 5.30558 18.5016 10H19.5016C19.5016 4.75329 15.2483 0.5 10.0016 0.5V1.5ZM10.0016 18.5C7.58825 18.5 5.41051 17.4949 3.86266 15.8791L3.14053 16.5708C4.86917 18.3754 7.30447 19.5 10.0016 19.5V18.5ZM3.86266 15.8791C2.39969 14.3519 1.50159 12.2814 1.50159 10H0.501594C0.501594 12.5493 1.5064 14.865 3.14053 16.5708L3.86266 15.8791ZM3.14804 15.8714L0.373009 18.6464L1.08012 19.3536L3.85515 16.5785L3.14804 15.8714ZM18.5016 10C18.5016 12.2814 17.6035 14.3519 16.1405 15.8791L16.8627 16.5708C18.4968 14.865 19.5016 12.5493 19.5016 10H18.5016ZM16.1405 15.8791C14.5927 17.4949 12.4149 18.5 10.0016 18.5V19.5C12.6987 19.5 15.134 18.3754 16.8627 16.5708L16.1405 15.8791ZM16.148 16.5785L18.9231 19.3536L19.6302 18.6464L16.8551 15.8714L16.148 16.5785ZM14.5016 10C14.5016 12.4853 12.4869 14.5 10.0016 14.5V15.5C13.0392 15.5 15.5016 13.0376 15.5016 10H14.5016ZM10.0016 14.5C7.51631 14.5 5.50159 12.4853 5.50159 10H4.50159C4.50159 13.0376 6.96403 15.5 10.0016 15.5V14.5ZM5.50159 10C5.50159 7.51472 7.51631 5.5 10.0016 5.5V4.5C6.96403 4.5 4.50159 6.96243 4.50159 10H5.50159ZM10.0016 5.5C12.4869 5.5 14.5016 7.51472 14.5016 10H15.5016C15.5016 6.96243 13.0392 4.5 10.0016 4.5V5.5ZM10.5016 10C10.5016 10.2761 10.2777 10.5 10.0016 10.5V11.5C10.83 11.5 11.5016 10.8284 11.5016 10H10.5016ZM10.0016 10.5C9.72545 10.5 9.50159 10.2761 9.50159 10H8.50159C8.50159 10.8284 9.17317 11.5 10.0016 11.5V10.5ZM9.50159 10C9.50159 9.72386 9.72545 9.5 10.0016 9.5V8.5C9.17317 8.5 8.50159 9.17157 8.50159 10H9.50159ZM10.0016 9.5C10.2777 9.5 10.5016 9.72386 10.5016 10H11.5016C11.5016 9.17157 10.83 8.5 10.0016 8.5V9.5Z"
          fill="#E6E6E6"/>
</svg>
